<svg width="158" height="144" viewBox="0 0 158 144" fill="none" xmlns="http://www.w3.org/2000/svg">
<g filter="url(#filter0_d_106_34)">
<path d="M7.12381 135.625H150.874C152.749 135.625 153.999 134.375 153.999 132.5L154 3.12473C154 1.25006 152.75 0 150.875 0H120.25C119.313 0 118.687 0.312807 118.063 0.937335C117.438 1.56186 117.125 2.18748 117.125 3.12479V25.6251H95.8754C94.0007 25.6251 92.7506 26.8753 92.7506 28.7499V51.2502H67.1256C66.1882 51.2502 65.5626 51.563 64.9381 52.1875C64.3136 52.8121 64.0008 53.4377 64.0008 54.375V78.7498H44.6254C43.6881 78.7498 43.0625 79.0626 42.438 79.6871C41.8135 80.3116 41.5007 80.9372 41.5007 81.8745V104.375H20.875C19.0004 104.375 17.7503 105.625 17.7503 107.5V130H7.12473C5.25006 130 4 131.25 4 133.125C4 135 5.25014 135.625 7.12473 135.625L7.12381 135.625ZM23.9989 110.313H45.2489C46.1862 110.313 46.8119 110 47.4364 109.375C48.0609 108.751 48.3737 108.125 48.3737 107.188V84.6874H67.749C68.6864 84.6874 69.312 84.3746 69.9365 83.7501C70.561 83.1255 70.8738 82.4999 70.8738 81.5626V57.1878H96.4989C98.3736 57.1878 99.6236 55.9377 99.6236 54.0631V31.5627H120.874C121.811 31.5627 122.437 31.2499 123.061 30.6254C123.686 30.0009 123.998 29.3753 123.998 28.438V5.93763L147.749 5.93654V129.374L23.9985 129.375L23.9989 110.313Z" fill="black"/>
</g>
<defs>
<filter id="filter0_d_106_34" x="0" y="0" width="158" height="143.625" filterUnits="userSpaceOnUse" color-interpolation-filters="sRGB">
<feFlood flood-opacity="0" result="BackgroundImageFix"/>
<feColorMatrix in="SourceAlpha" type="matrix" values="0 0 0 0 0 0 0 0 0 0 0 0 0 0 0 0 0 0 127 0" result="hardAlpha"/>
<feOffset dy="4"/>
<feGaussianBlur stdDeviation="2"/>
<feComposite in2="hardAlpha" operator="out"/>
<feColorMatrix type="matrix" values="0 0 0 0 0 0 0 0 0 0 0 0 0 0 0 0 0 0 0.25 0"/>
<feBlend mode="normal" in2="BackgroundImageFix" result="effect1_dropShadow_106_34"/>
<feBlend mode="normal" in="SourceGraphic" in2="effect1_dropShadow_106_34" result="shape"/>
</filter>
</defs>
</svg>
