<svg width="144" height="152" viewBox="0 0 144 152" fill="none" xmlns="http://www.w3.org/2000/svg">
<path d="M142.85 150.405C142.438 150.818 141.879 151.05 141.296 151.05H3.21842C2.63607 151.05 2.07641 150.818 1.66515 150.406C1.2527 149.993 1.02121 149.434 1.02121 148.851V2.74816C1.02121 1.53409 2.00393 0.549561 3.21845 0.549561H141.296H142L141.897 0.633386C142.254 0.734932 142.583 0.926294 142.85 1.19385M142.85 150.405C142.85 150.405 142.849 150.406 142.849 150.406L142.673 150.229L142.85 150.405ZM142.85 150.405C143.262 149.993 143.493 149.433 143.493 148.851V2.74816C143.493 2.16569 143.262 1.60624 142.85 1.19385M142.85 1.19385C142.85 1.19374 142.849 1.19363 142.849 1.19352L142.673 1.3703L142.85 1.19385ZM30.5161 35.8643V146.652H5.41958V4.94567L139.101 4.94703L139.102 146.652H114.004V35.8642C114.004 35.2816 113.772 34.722 113.36 34.3096L113.359 34.3093C112.947 33.8985 112.388 33.667 111.805 33.667H32.7147C31.5006 33.667 30.5161 34.6498 30.5161 35.8643ZM34.9119 146.652V38.0623L70.061 38.0636V146.654L34.9119 146.652ZM74.457 146.652V38.0623L109.606 38.0636V146.654L74.457 146.652Z" fill="black" stroke="black" stroke-width="0.5"/>
<path d="M134.56 90.0524L134.56 90.0526C134.952 90.7331 134.952 91.5731 134.557 92.254C134.163 92.9349 133.435 93.3519 132.648 93.349M134.56 90.0524L132.649 93.099M134.56 90.0524L130.138 82.3966L130.138 82.396C129.744 81.7185 129.02 81.3015 128.235 81.3015C127.452 81.3015 126.728 81.7186 126.334 82.396L126.334 82.3966L121.912 90.0524L121.912 90.0526C121.52 90.7332 121.52 91.5733 121.915 92.2542C122.309 92.935 123.037 93.3519 123.824 93.349M134.56 90.0524L123.823 93.099M132.648 93.349C132.648 93.349 132.648 93.349 132.648 93.349L132.649 93.099M132.648 93.349H132.649V93.099M132.648 93.349H123.844H123.824M132.649 93.099H123.844H123.823M123.824 93.349C123.824 93.349 123.824 93.349 123.824 93.349L123.823 93.099M123.824 93.349H123.823V93.099M127.648 89.051L128.265 87.9876L128.883 89.051H127.648Z" fill="black" stroke="black" stroke-width="0.5"/>
<path d="M123.844 95.0295C123.059 95.0266 122.329 95.4433 121.935 96.1243C121.539 96.8052 121.539 97.6453 121.932 98.3259L121.932 98.3263L126.355 105.963L126.571 105.838L126.355 105.963C126.747 106.641 127.473 107.058 128.256 107.058C129.04 107.058 129.763 106.641 130.157 105.963L130.157 105.963L134.579 98.307L134.579 98.307L134.581 98.3046C134.965 97.6208 134.956 96.7851 134.558 96.1104C134.159 95.4344 133.431 95.0237 132.648 95.0295H123.844ZM123.844 95.0295C123.845 95.0295 123.845 95.0295 123.845 95.0295L123.844 95.2795V95.0295H123.844ZM127.648 99.4255H128.883L128.265 100.489L127.648 99.4255Z" fill="black" stroke="black" stroke-width="0.5"/>
</svg>
