<svg width="149" height="150" viewBox="0 0 149 150" fill="none" xmlns="http://www.w3.org/2000/svg">
<g clip-path="url(#clip0_302_7)">
<path d="M143.651 -0.158859L143.772 -0.25H143.025H4.94724C3.73272 -0.25 2.75 0.734529 2.75 1.94859V148.051C2.75 148.634 2.98137 149.193 3.3936 149.606C3.8049 150.019 4.3647 150.25 4.94721 150.25H143.025C143.607 150.25 144.167 150.019 144.578 149.606C144.991 149.193 145.222 148.634 145.222 148.051V1.94859C145.222 1.36613 144.991 0.806679 144.578 0.39429C144.578 0.394178 144.578 0.394067 144.578 0.393956L144.401 0.570738L143.651 -0.158859ZM32.2449 35.0647V145.853H7.14837V4.14611L140.83 4.14747L140.83 145.853H115.732V35.0647C115.732 34.4821 115.501 33.9225 115.088 33.51L115.088 33.5097C114.676 33.0989 114.116 32.8675 113.534 32.8675H34.4435C33.2294 32.8675 32.2449 33.8502 32.2449 35.0647ZM36.6407 145.853V37.2627L71.7898 37.2641V145.854L36.6407 145.853ZM76.1858 145.853V37.2627L111.335 37.2641V145.854L76.1858 145.853Z" fill="black" stroke="black" stroke-width="0.5"/>
<path d="M136.289 89.2529L136.289 89.253C136.681 89.9337 136.681 90.7739 136.286 91.4548C135.891 92.1355 135.163 92.5523 134.377 92.5495M136.289 89.2529L134.378 92.2995M136.289 89.2529L131.867 81.5971L131.867 81.5965C131.473 80.9189 130.749 80.5019 129.964 80.5019C129.181 80.5019 128.457 80.919 128.063 81.5964L128.063 81.5971L123.641 89.2529L123.641 89.253C123.248 89.9337 123.248 90.7737 123.644 91.4547C124.038 92.1354 124.766 92.5523 125.552 92.5495M136.289 89.2529L125.552 92.2995M134.377 92.5495C134.377 92.5495 134.377 92.5494 134.377 92.5494L134.378 92.2995M134.377 92.5495H134.378V92.2995M134.377 92.5495H125.573H125.552M134.378 92.2995H125.573H125.552M125.552 92.5495C125.553 92.5495 125.553 92.5494 125.553 92.5494L125.552 92.2995M125.552 92.5495H125.552V92.2995M129.377 88.2515L129.994 87.188L130.612 88.2515H129.377Z" fill="black" stroke="black" stroke-width="0.5"/>
<path d="M125.573 94.2299C124.787 94.227 124.058 94.6438 123.663 95.3247C123.268 96.0057 123.268 96.8457 123.66 97.5263L123.661 97.5267L128.083 105.163L128.3 105.038L128.083 105.163C128.476 105.841 129.201 106.258 129.985 106.258C130.768 106.258 131.492 105.841 131.886 105.164L131.886 105.163L136.308 97.5074L136.308 97.5074L136.309 97.505C136.694 96.8212 136.685 95.9856 136.286 95.3109C135.888 94.6349 135.16 94.2242 134.377 94.2299H125.573ZM125.573 94.2299C125.573 94.2299 125.574 94.2299 125.574 94.2299L125.573 94.4799M125.573 94.2299H125.573V94.4799M125.573 94.4799C124.876 94.4772 124.229 94.8468 123.88 95.4502C123.529 96.0535 123.529 96.7981 123.877 97.4015L125.573 94.4799ZM129.377 98.6259H130.612L129.994 99.6893L129.377 98.6259Z" fill="black" stroke="black" stroke-width="0.5"/>
</g>
<defs>
<clipPath id="clip0_302_7">
<rect width="150" height="150" fill="white" transform="translate(-1)"/>
</clipPath>
</defs>
</svg>
