<svg width="123" height="80" viewBox="0 0 123 80" fill="none" xmlns="http://www.w3.org/2000/svg">
<path d="M11.0862 34.8L117.788 34.8C120.355 34.8 122.437 36.4104 122.437 38.3992C122.437 40.3879 120.355 41.9983 117.788 41.9983L11.0862 42C8.5194 42 6.43701 40.3896 6.43701 38.4008C6.43485 36.4104 8.5194 34.8 11.0862 34.8V34.8Z" fill="white"/>
<path d="M38.8993 -9.46711e-07C40.117 -9.46711e-07 41.3304 0.473211 42.2443 1.41314C44.0438 3.26257 44.0004 6.21472 42.1531 8.0143L11.1684 38.1588L42.3421 72.1804C44.0873 74.082 43.9571 77.0341 42.0555 78.7749C40.1583 80.5115 37.1953 80.3899 35.461 78.4862L1.22714 41.1243C-0.481198 39.264 -0.394399 36.3857 1.41382 34.6276L35.6461 1.32226C36.5512 0.438811 37.7278 0.000304308 38.9 0.000304308L38.8993 -9.46711e-07Z" fill="white"/>
</svg>
