<svg width="80" height="57" viewBox="0 0 80 57" fill="none" xmlns="http://www.w3.org/2000/svg">
<path d="M52.5756 31.798C52.5756 38.7668 46.926 44.4164 39.9572 44.4164C32.9884 44.4164 27.3389 38.7668 27.3389 31.798C27.3389 24.8292 32.9884 19.1797 39.9572 19.1797C46.926 19.1797 52.5756 24.8292 52.5756 31.798Z" fill="#29245A"/>
<path d="M71.4188 7.15002H53.5007L50.22 1.43C49.7153 0.588541 48.79 0 47.7807 0H32.134C31.1247 0 30.1993 0.504644 29.6947 1.43L26.4139 7.15002H20.0208V6.14073C20.0208 5.38377 19.3478 4.71073 18.5908 4.71073H11.8609C11.1039 4.71073 10.4309 5.38378 10.4309 6.14073V7.15002H8.4962C3.7855 7.15002 0 10.9354 0 15.6462V48.1174C0 52.8281 3.78535 56.6136 8.4962 56.6136H71.5038C76.2145 56.6136 80 52.8283 80 48.1174V15.6462C79.9149 10.9355 76.1295 7.15002 71.4188 7.15002V7.15002ZM39.957 48.9588C30.5355 48.9588 22.8802 41.3035 22.8802 31.882C22.8802 22.4604 30.5355 14.8051 39.957 14.8051C49.3786 14.8051 57.0339 22.4604 57.0339 31.882C57.0339 41.3035 49.3786 48.9588 39.957 48.9588ZM70.4934 19.516C68.895 19.516 67.5488 18.1699 67.5488 16.5714C67.5488 14.9729 68.8949 13.6268 70.4934 13.6268C72.0919 13.6268 73.438 14.9729 73.438 16.5714C73.4374 18.1699 72.0919 19.516 70.4934 19.516Z" fill="black"/>
<path d="M71.4188 7.15002H53.5007L50.22 1.43C49.7153 0.588541 48.79 0 47.7807 0H32.134C31.1247 0 30.1993 0.504644 29.6947 1.43L26.4139 7.15002H20.0208V6.14073C20.0208 5.38377 19.3478 4.71073 18.5908 4.71073H11.8609C11.1039 4.71073 10.4309 5.38378 10.4309 6.14073V7.15002H8.4962C3.7855 7.15002 0 10.9354 0 15.6462V48.1174C0 52.8281 3.78535 56.6136 8.4962 56.6136H71.5038C76.2145 56.6136 80 52.8283 80 48.1174V15.6462C79.9149 10.9355 76.1295 7.15002 71.4188 7.15002V7.15002ZM39.957 48.9588C30.5355 48.9588 22.8802 41.3035 22.8802 31.882C22.8802 22.4604 30.5355 14.8051 39.957 14.8051C49.3786 14.8051 57.0339 22.4604 57.0339 31.882C57.0339 41.3035 49.3786 48.9588 39.957 48.9588ZM70.4934 19.516C68.895 19.516 67.5488 18.1699 67.5488 16.5714C67.5488 14.9729 68.8949 13.6268 70.4934 13.6268C72.0919 13.6268 73.438 14.9729 73.438 16.5714C73.4374 18.1699 72.0919 19.516 70.4934 19.516Z" fill="#29245A"/>
</svg>
