<svg width="73" height="73" viewBox="0 0 73 73" fill="none" xmlns="http://www.w3.org/2000/svg">
<g filter="url(#filter0_d_10_114)">
<path fill-rule="evenodd" clip-rule="evenodd" d="M22.0114 0V3.07284H20.2544V1.31727L4.00012 17.5578H20.2544V15.3612H22.0114V17.5578H49.5621L66.3356 0.000470027L22.0114 0ZM22.0114 13.6058H20.2544V10.0947H22.0114V13.6058ZM22.0114 8.33831H20.2544V4.82716H22.0114V8.33831Z" fill="#29245A" fill-opacity="0.51"/>
<path fill-rule="evenodd" clip-rule="evenodd" d="M4 64.9604H4.54361L4 64.416V64.9604Z" fill="#29245A" fill-opacity="0.51"/>
<path fill-rule="evenodd" clip-rule="evenodd" d="M4 63.2827L5.91646 61.3678L7.15875 62.6091L4.80346 64.9624H48.8092V48.2829H47.4897V46.5274H48.8092V20.1914H4.00016L4 63.2827ZM42.2179 46.528H45.732V48.2836H42.2179V46.528ZM36.9465 46.528H40.4607V48.2836H36.9465V46.528ZM31.6758 46.528H35.1895V48.2836L31.6758 48.2842V46.528ZM26.4045 46.528H29.9181V48.2836H26.4045V46.528ZM20.2544 20.6294H22.0115V24.1405H20.2544V20.6294ZM20.2544 25.8963H22.0115V29.4074H20.2544V25.8963ZM20.2544 31.1632H22.0115V34.6743H20.2544V31.1632ZM20.2544 36.4294H22.0115V39.9406H20.2544V36.4294ZM20.2544 41.6969H22.0115V45.2081H20.2544V41.6969ZM20.2544 47.0422V46.9626H20.3341L20.5118 46.785L20.6895 46.9626H21.1332V46.5278H24.6474V48.2834H21.4966L19.582 50.1963L18.3397 48.9551L20.2544 47.0422ZM17.0975 50.1964L18.3398 51.4376L15.8552 53.9201L14.613 52.6789L17.0975 50.1964ZM13.3707 53.9201L14.613 55.1613L12.1284 57.6438L10.8861 56.4026L13.3707 53.9201ZM9.6438 57.6451L10.8861 58.8863L8.40151 61.3688L7.15922 60.1275L9.6438 57.6451Z" fill="#29245A" fill-opacity="0.51"/>
<path fill-rule="evenodd" clip-rule="evenodd" d="M51.4449 19.4026V64.9998L68.5777 47.8814L68.5753 46.5263H68.579V47.8808L69 47.4601L68.9994 1.02734L51.4449 19.4026ZM56.2736 48.2828H52.76V46.5272H56.2736V48.2828ZM61.5456 48.2828H58.0315V46.5272H61.5456V48.2828ZM66.8169 48.2828H63.3028V46.5272H66.8169V48.2828Z" fill="#29245A" fill-opacity="0.51"/>
</g>
<defs>
<filter id="filter0_d_10_114" x="0" y="0" width="73" height="73" filterUnits="userSpaceOnUse" color-interpolation-filters="sRGB">
<feFlood flood-opacity="0" result="BackgroundImageFix"/>
<feColorMatrix in="SourceAlpha" type="matrix" values="0 0 0 0 0 0 0 0 0 0 0 0 0 0 0 0 0 0 127 0" result="hardAlpha"/>
<feOffset dy="4"/>
<feGaussianBlur stdDeviation="2"/>
<feComposite in2="hardAlpha" operator="out"/>
<feColorMatrix type="matrix" values="0 0 0 0 0 0 0 0 0 0 0 0 0 0 0 0 0 0 0.25 0"/>
<feBlend mode="normal" in2="BackgroundImageFix" result="effect1_dropShadow_10_114"/>
<feBlend mode="normal" in="SourceGraphic" in2="effect1_dropShadow_10_114" result="shape"/>
</filter>
</defs>
</svg>
