<svg width="557" height="557" viewBox="0 0 557 557" fill="none" xmlns="http://www.w3.org/2000/svg">
<g filter="url(#filter0_d_310_6)">
<path d="M463.4 278.724C463.4 381.336 380.201 464.537 277.587 464.537C174.972 464.537 91.7734 381.338 91.7734 278.724C91.7734 176.107 177.052 93.6037 279.667 93.6037C276.895 101.922 274.119 108.166 267.881 116.484L252.627 133.125L399.614 66.5624L252.627 -4.60488e-05L267.881 16.6412C272.736 22.8801 276.895 29.8158 279.667 37.4424C146.547 37.4424 37 145.601 37 278.722C37 411.842 145.159 520.002 278.28 520.002C411.4 520.002 519.56 411.844 519.56 278.722L463.4 278.724Z" fill="white"/>
</g>
<defs>
<filter id="filter0_d_310_6" x="-4" y="0" width="564.56" height="565" filterUnits="userSpaceOnUse" color-interpolation-filters="sRGB">
<feFlood flood-opacity="0" result="BackgroundImageFix"/>
<feColorMatrix in="SourceAlpha" type="matrix" values="0 0 0 0 0 0 0 0 0 0 0 0 0 0 0 0 0 0 127 0" result="hardAlpha"/>
<feOffset dy="4"/>
<feGaussianBlur stdDeviation="2"/>
<feComposite in2="hardAlpha" operator="out"/>
<feColorMatrix type="matrix" values="0 0 0 0 0 0 0 0 0 0 0 0 0 0 0 0 0 0 0.25 0"/>
<feBlend mode="normal" in2="BackgroundImageFix" result="effect1_dropShadow_310_6"/>
<feBlend mode="normal" in="SourceGraphic" in2="effect1_dropShadow_310_6" result="shape"/>
</filter>
</defs>
</svg>
