<svg width="158" height="158" viewBox="0 0 158 158" fill="none" xmlns="http://www.w3.org/2000/svg">
<g filter="url(#filter0_d_106_12)">
<g filter="url(#filter1_d_106_12)">
<path d="M152.626 44.2127L109.757 1.31941C107.895 -0.439805 104.985 -0.439805 103.124 1.31941L23.6409 80.8235L5.38156 99.0829L5.3832 99.0813C4.50193 99.9576 4.0049 101.146 4 102.387C3.99837 103.636 4.49704 104.835 5.3832 105.714L48.2514 148.587C49.131 149.466 50.3245 149.962 51.5688 149.962C52.813 149.962 54.0049 149.466 54.8845 148.587L152.625 50.8462C153.506 49.9666 154 48.7731 154 47.5289C154 46.2846 153.506 45.0928 152.625 44.2131L152.626 44.2127ZM51.5827 138.647L15.3222 102.386L27.0417 90.6667L41.4571 105.082V105.08C43.2882 106.913 46.2574 106.913 48.0903 105.08C49.9214 103.249 49.9214 100.28 48.0903 98.4472L33.5816 84.1264L42.2536 75.4544L56.6689 89.8698V89.8681C58.5001 91.7009 61.471 91.7009 63.3022 89.8681C65.1333 88.037 65.1333 85.0678 63.3022 83.2349L48.8868 68.8195L57.5588 60.1475L71.9742 74.5629C73.8233 76.2436 76.6666 76.1799 78.4371 74.4158C80.2075 72.6516 80.283 69.8083 78.6071 67.9529L64.1917 53.5375L72.8637 44.8655L87.2791 59.2809H87.2807C88.1603 60.167 89.3587 60.6641 90.6079 60.6641C92.5094 60.6657 94.2212 59.5196 94.9453 57.762C95.6696 56.006 95.2625 53.9852 93.9137 52.6477L79.4983 38.2323L88.1703 29.5603L102.586 43.9757V43.9741C103.47 44.8521 104.669 45.3409 105.914 45.3344C107.152 45.336 108.341 44.8471 109.219 43.9741C110.098 43.0961 110.594 41.9026 110.594 40.6583C110.594 39.4141 110.098 38.2206 109.219 37.341L94.8034 22.9256L106.523 11.2061L142.69 47.5139L51.5827 138.647Z" fill="black"/>
<path d="M109.723 1.35576L152.548 44.2061L152.548 44.2066L152.59 44.2485C153.462 45.1188 153.95 46.2979 153.95 47.5289C153.95 48.7599 153.461 49.9406 152.59 50.8109L152.625 50.8462L152.59 50.8109L54.8491 148.551C53.9789 149.422 52.7997 149.912 51.5688 149.912C50.3378 149.912 49.157 149.422 48.2867 148.551L5.41855 105.679L5.41842 105.679C4.54173 104.809 4.04839 103.623 4.05 102.387C4.05487 101.16 4.54592 99.9852 5.41692 99.1183C5.41726 99.1179 5.4176 99.1176 5.41795 99.1172C5.41812 99.1171 5.41838 99.1168 5.41855 99.1166L23.6763 80.8589L23.6409 80.8235L23.6763 80.8589L103.158 1.35575C103.159 1.35561 103.159 1.35547 103.159 1.35533C105 -0.385078 107.88 -0.385122 109.722 1.35527C109.723 1.35543 109.723 1.3556 109.723 1.35576ZM51.5473 138.682L51.5827 138.717L51.618 138.682L142.725 47.5492L142.761 47.514L142.725 47.4786L106.558 11.1708L106.523 11.1353L106.487 11.1708L94.768 22.8902L94.7327 22.9256L94.768 22.9609L109.183 37.3763C110.054 38.2466 110.544 39.4274 110.544 40.6583C110.544 41.8893 110.054 43.0701 109.183 43.9387C108.315 44.8024 107.139 45.286 105.915 45.2844H105.914C104.682 45.2908 103.496 44.8072 102.621 43.9386L102.536 43.854V43.855L88.2057 29.525L88.1703 29.4896L88.135 29.525L79.463 38.197L79.4276 38.2323L79.463 38.2677L93.8783 52.6831L93.8785 52.6832C95.2129 54.0065 95.6157 56.0057 94.8991 57.7429C94.1826 59.4818 92.4891 60.6157 90.6079 60.6141C89.372 60.6141 88.1864 60.1223 87.3162 59.2457L87.3015 59.2309H87.2998L72.8991 44.8302L72.8637 44.7948L72.8283 44.8302L64.1563 53.5022L64.121 53.5375L64.1563 53.5729L78.57 67.9864C78.5703 67.9867 78.5706 67.987 78.5708 67.9874C80.228 69.823 80.1531 72.6353 78.4018 74.3803C76.6505 76.1254 73.8382 76.1887 72.0087 74.5267C72.0084 74.5265 72.0081 74.5262 72.0078 74.5259L57.5941 60.1122L57.5588 60.0768L57.5234 60.1122L48.8514 68.7842L48.8161 68.8195L48.8514 68.8549L63.2668 83.2702C65.0785 85.0836 65.0785 88.0211 63.2668 89.8328L63.3022 89.8681L63.2668 89.8328C61.4552 91.646 58.5159 91.646 56.7043 89.8328L56.6189 89.7474V89.7491L42.2889 75.419L42.2536 75.3837L42.2182 75.419L33.5462 84.091L33.5106 84.1266L33.5464 84.162L48.0549 98.4825C49.8666 100.296 49.8666 103.233 48.0549 105.045C46.2416 106.858 43.3041 106.858 41.4924 105.045L41.4071 104.96V104.961L27.077 90.6313L27.0417 90.5959L27.0063 90.6313L15.2868 102.351L15.2515 102.386L15.2868 102.421L51.5473 138.682ZM102.636 44.023C103.515 44.8702 104.692 45.3408 105.914 45.3344L102.636 44.023Z" stroke="black" stroke-width="0.1"/>
</g>
</g>
<defs>
<filter id="filter0_d_106_12" x="0" y="0" width="158" height="157.962" filterUnits="userSpaceOnUse" color-interpolation-filters="sRGB">
<feFlood flood-opacity="0" result="BackgroundImageFix"/>
<feColorMatrix in="SourceAlpha" type="matrix" values="0 0 0 0 0 0 0 0 0 0 0 0 0 0 0 0 0 0 127 0" result="hardAlpha"/>
<feOffset dy="4"/>
<feGaussianBlur stdDeviation="2"/>
<feComposite in2="hardAlpha" operator="out"/>
<feColorMatrix type="matrix" values="0 0 0 0 0 0 0 0 0 0 0 0 0 0 0 0 0 0 0.25 0"/>
<feBlend mode="normal" in2="BackgroundImageFix" result="effect1_dropShadow_106_12"/>
<feBlend mode="normal" in="SourceGraphic" in2="effect1_dropShadow_106_12" result="shape"/>
</filter>
<filter id="filter1_d_106_12" x="0" y="0" width="158" height="157.962" filterUnits="userSpaceOnUse" color-interpolation-filters="sRGB">
<feFlood flood-opacity="0" result="BackgroundImageFix"/>
<feColorMatrix in="SourceAlpha" type="matrix" values="0 0 0 0 0 0 0 0 0 0 0 0 0 0 0 0 0 0 127 0" result="hardAlpha"/>
<feOffset dy="4"/>
<feGaussianBlur stdDeviation="2"/>
<feComposite in2="hardAlpha" operator="out"/>
<feColorMatrix type="matrix" values="0 0 0 0 0 0 0 0 0 0 0 0 0 0 0 0 0 0 0.25 0"/>
<feBlend mode="normal" in2="BackgroundImageFix" result="effect1_dropShadow_106_12"/>
<feBlend mode="normal" in="SourceGraphic" in2="effect1_dropShadow_106_12" result="shape"/>
</filter>
</defs>
</svg>
