<svg width="150" height="150" viewBox="0 0 150 150" fill="none" xmlns="http://www.w3.org/2000/svg">
<path d="M91.9906 111.046V111.396L92.322 111.282L122.071 101.032C122.071 101.031 122.071 101.031 122.072 101.031C122.657 100.836 123.336 100.933 123.82 101.308L123.84 101.324C124.334 101.719 124.643 102.318 124.75 103.041L124.748 129.099C124.748 130.186 123.858 131.077 122.77 131.077H45.9975H45.9768L45.9565 131.08C45.3118 131.188 44.6639 131.188 43.9922 131.188C36.1848 131.188 28.928 126.24 26.2891 118.544L26.2887 118.542C24.6399 113.815 24.9692 108.758 27.1688 104.249L27.17 104.246C28.1585 102.159 29.4768 100.401 31.126 98.8617L31.2441 98.7515L31.1922 98.5986L27.0829 86.4924V86.4225V86.1995V85.9764V85.7533V85.5303V85.3072V85.1247L31.5267 71.7922L31.5896 71.6036L31.4199 71.4999C29.4588 70.3012 27.9406 68.5638 27.1811 66.2858L27.1811 66.2858L27.18 66.2828C26.3122 63.7884 26.5258 61.1819 27.6149 58.784C28.8123 56.3916 30.7675 54.6556 33.2658 53.7864C35.7594 52.9189 38.3651 53.1321 40.7624 54.2204C43.0443 55.4177 44.7809 57.3736 45.6501 59.8722C46.5207 62.3748 46.4111 64.9792 45.2172 67.3668L45.2126 67.3762L45.2087 67.3859C44.9971 67.9156 44.6759 68.4518 44.2429 68.9936L44.1572 69.1008L44.2017 69.2307L52.6699 93.9673L52.7509 94.204L52.9876 94.1228L71.4845 87.7711L71.4846 87.7712L71.4911 87.7687C72.274 87.4752 73.1671 87.7687 73.6627 88.3632L91.4912 109.757L91.4985 109.766L91.5065 109.774C91.706 109.973 91.8236 110.165 91.8935 110.363C91.9642 110.563 91.9906 110.783 91.9906 111.046ZM30.9424 64.8855L30.9424 64.8855C31.9879 67.9058 35.3575 69.545 38.2819 68.3825C39.7953 67.9141 40.9581 66.863 41.6532 65.4727L41.6571 65.465L41.6604 65.4571C42.2387 64.0692 42.3552 62.5611 41.8916 61.0531L41.8916 61.053C41.4247 59.5349 40.3721 58.3686 38.9788 57.6719L38.9722 57.6686L38.9655 57.6657C38.1631 57.3221 37.2384 57.0883 36.4157 57.0883C35.8321 57.0883 35.1342 57.2035 34.5453 57.4382C31.521 58.4884 29.8955 61.8607 30.9424 64.8855ZM35.5243 72.6877H35.3441L35.2871 72.8586L31.0526 85.5612L31.0246 85.6451L31.0556 85.728L31.3886 86.6161L38.7409 108.118L38.8218 108.354L39.0584 108.274L43.2928 106.825L43.5289 106.744L43.4486 106.508L37.7722 89.8103C37.6698 89.2886 37.6734 88.8849 37.7727 88.4868L37.7751 88.4772L37.7767 88.4673C37.8696 87.9086 38.3463 87.4148 38.9461 87.2147L38.9531 87.2124L38.9599 87.2096C39.9193 86.8256 41.0111 87.392 41.4179 88.4006L43.0866 93.4074L43.1435 93.5784H43.3237C44.9741 93.5784 46.6272 93.7987 48.1743 94.1301L48.6061 94.2226L48.4632 93.8048L40.9971 71.9653L40.8922 71.6584L40.6221 71.838C40.3192 72.0394 40.0151 72.1425 39.679 72.2543L39.6788 72.2543C38.696 72.582 37.6092 72.7988 36.5269 72.7988C36.384 72.7988 36.2374 72.775 36.0666 72.7466L36.0579 72.7452C35.8965 72.7183 35.7122 72.6877 35.5243 72.6877ZM46.763 110.015L46.6564 109.856L46.4747 109.917L40.5692 111.922L40.3996 111.979V112.158C40.3996 112.533 40.5216 113.009 40.6347 113.35C41.2374 115.274 43.2773 116.222 45.1787 115.63C46.0432 115.382 46.7557 114.654 47.2183 113.843L47.2254 113.831L47.231 113.818C47.5829 112.997 47.7071 112.042 47.3513 111.082C47.2511 110.694 47.0661 110.439 46.8958 110.204C46.8498 110.14 46.8049 110.078 46.763 110.015ZM48.7525 126.213L48.8896 126.167L48.8898 126.166C56.5106 123.506 60.5251 115.172 57.9355 107.512C56.6884 103.771 53.9677 100.71 50.4545 99.0101C48.6401 98.1032 46.8244 97.6491 44.8987 97.5361L44.5285 97.5144L44.6473 97.8657L47.2083 105.443L47.2413 105.541L47.3334 105.587C49.061 106.45 50.4621 107.96 51.1083 109.899L51.1082 109.899L51.1097 109.903C51.7553 111.733 51.6494 113.781 50.7862 115.616C49.9231 117.343 48.4128 118.743 46.4755 119.388L46.4754 119.388L46.4668 119.391C45.6077 119.714 44.8585 119.821 43.992 119.821C40.863 119.821 37.9525 117.879 36.874 114.752L36.871 114.744L36.8674 114.735C36.5482 113.991 36.4423 113.357 36.4423 112.606V112.502L36.369 112.429C36.0532 112.113 35.8564 111.811 35.7611 111.524L35.76 111.521L32.8632 103.164L32.7205 102.753L32.4371 103.083C31.7527 103.882 31.1833 104.793 30.729 105.815C29.0323 109.323 28.6904 113.29 30.0515 117.034C32.6598 124.741 41.0478 128.819 48.7525 126.213ZM55.7379 97.7396L55.8482 97.8499L55.8636 97.8446C57.0407 98.8203 58.2019 99.9955 59.0496 101.266L59.1567 101.427L59.3392 101.364L68.6959 98.1335C68.6964 98.1334 68.6969 98.1332 68.6973 98.1331C68.9926 98.0353 69.1822 98.0351 69.3975 98.0351C69.8947 98.0351 70.4849 98.2355 70.8733 98.7216L70.8755 98.7243L83.2438 113.767L83.4041 113.962L83.5976 113.8L87.0516 110.903L87.2423 110.743L87.0832 110.552L71.7062 92.0548L71.5959 91.9222L71.4328 91.9781L55.8336 97.3264L55.91 97.5493L55.7378 97.7396L55.7379 97.7396ZM61.5838 106.221L61.6021 106.218L61.5848 106.224C63.4536 111.611 62.6844 117.328 59.9344 121.949L59.5859 122.534L60.2303 122.313L79.3956 115.739L79.741 115.62L79.5056 115.341L68.6981 102.527L68.5876 102.396L68.4257 102.452L61.2944 104.903L60.9882 105.008L61.1675 105.278C61.369 105.581 61.472 105.885 61.5838 106.221ZM60.4028 126.408L60.4839 126.894H120.431H120.543H120.793V126.644V106.031V105.681L120.461 105.794L60.4028 126.408Z" fill="black" stroke="black" stroke-width="0.5"/>
</svg>
