<svg width="150" height="118" viewBox="0 0 150 118" fill="none" xmlns="http://www.w3.org/2000/svg">
<path d="M20.8005 50.9663C22.4724 50.2971 24.3109 51.2997 24.979 52.9716L27.4856 60.4926C29.8922 60.4926 32.2974 60.8007 34.5553 61.2685L34.6035 61.4094L34.84 61.3285L34.8924 61.0841C34.8436 61.0736 34.7947 61.0632 34.7458 61.0529L23.7243 28.8133C23.7426 28.8016 23.7609 28.7896 23.7793 28.7774L23.6408 28.5692L23.4042 28.6501L23.4228 28.7043C22.9941 28.9513 22.5655 29.0947 22.1368 29.2373C20.6329 29.7386 18.9622 30.0732 17.2904 30.0732C17.0397 30.0732 16.789 30.0315 16.5384 29.9899C16.2877 29.9482 16.0371 29.9065 15.7864 29.9065L9.43459 48.9604L9.93592 50.2976L20.8005 50.9663ZM20.8005 50.9663C19.7979 51.3009 18.9619 52.1368 18.7952 53.1395L20.8005 50.9663ZM145.568 71.9284C146.483 71.6234 147.545 71.7732 148.307 72.3632L148.339 72.3885C149.111 73.0067 149.587 73.9397 149.75 75.0527L149.748 114.148C149.748 115.849 148.356 117.241 146.655 117.241H31.4962H31.4756L31.4552 117.244C30.4763 117.407 29.4943 117.407 28.4883 117.407C16.7251 117.407 5.79155 109.952 1.81538 98.3558L1.81495 98.3546C-0.669349 91.2311 -0.172938 83.6123 3.14087 76.8181L3.1421 76.8155C4.63183 73.6699 6.61895 71.0207 9.10377 68.7012L9.22181 68.591L9.16991 68.438L2.99932 50.2593V50.1338V49.7992V49.4646V49.13V48.7954V48.4608V48.1667L9.67146 28.1488L9.73434 27.9602L9.56467 27.8564C6.60094 26.0449 4.30276 23.4164 3.15303 19.9683L3.15305 19.9683L3.15198 19.9652C1.83845 16.1895 2.16317 12.2457 3.80959 8.62213C5.61978 5.00394 8.578 2.37647 12.3576 1.06158C16.1325 -0.251693 20.0756 0.0726374 23.6985 1.7182C27.1502 3.52842 29.7782 6.48733 31.0932 10.2672C32.4096 14.0511 32.2444 17.9928 30.4377 21.6062L30.433 21.6155L30.4291 21.6252C30.1064 22.4331 29.6177 23.248 28.962 24.0685L28.8763 24.1757L28.9208 24.3055L41.6231 61.4105L41.7041 61.6472L41.9408 61.5659L69.6862 52.0384L69.6862 52.0385L69.6928 52.036C70.9214 51.5754 72.3158 52.036 73.09 52.9647L99.8329 85.0554L99.8401 85.0641L99.8482 85.0721C100.159 85.3831 100.346 85.6862 100.458 86.0026C100.571 86.3213 100.611 86.6664 100.611 87.0685V87.4191L100.942 87.3049L145.566 71.9288C145.567 71.9287 145.567 71.9285 145.568 71.9284ZM9.03171 17.7874L9.03174 17.7874C10.5786 22.256 15.5636 24.6752 19.8812 22.9558C22.1186 22.2647 23.8387 20.7119 24.868 18.6532L24.8719 18.6455L24.8752 18.6375C25.7321 16.5809 25.9043 14.3487 25.218 12.1163L25.218 12.1163C24.5284 9.87413 22.974 8.15057 20.9123 7.11972L20.9057 7.11642L20.899 7.11352C19.7064 6.60273 18.3365 6.25739 17.1235 6.25739C16.2613 6.25739 15.2292 6.42815 14.3616 6.77441C9.88895 8.32598 7.48345 13.3142 9.03171 17.7874ZM15.7864 29.6565H15.6062L15.5492 29.8274L9.19742 48.8813L9.16944 48.9653L9.2005 49.0481L9.70056 50.382L9.70183 50.3854L20.7297 82.6364L20.8106 82.873L21.0471 82.7921L27.3987 80.6189L27.6348 80.5381L27.5545 80.3019L19.0372 55.2478C18.8792 54.4473 18.8829 53.8206 19.0378 53.2L19.0402 53.1903L19.0418 53.1805C19.1903 52.2876 19.9456 51.5152 20.8796 51.2034L20.8866 51.2011L20.8934 51.1984C22.41 50.5914 24.1147 51.4918 24.7442 53.0577L27.2484 60.5716L27.3054 60.7426H27.4856C29.972 60.7426 32.4606 61.0744 34.7877 61.573L35.2194 61.6655L35.0766 61.2477L23.8774 28.4884L23.7724 28.1814L23.5023 28.3611C23.0324 28.6737 22.5612 28.8327 22.0579 29.0001L22.0578 29.0001C20.5736 29.4948 18.93 29.8232 17.2904 29.8232C17.0639 29.8232 16.8337 29.7855 16.5794 29.7432L16.5701 29.7417C16.3256 29.701 16.0578 29.6565 15.7864 29.6565ZM32.5405 85.5922L32.434 85.4326L32.2522 85.4943L23.394 88.501L23.2244 88.5585V88.7377C23.2244 89.2796 23.4024 89.9786 23.571 90.4863C24.4524 93.3018 27.4394 94.6963 30.2322 93.8251C31.4865 93.4661 32.5336 92.4036 33.2189 91.2028L33.226 91.1905L33.2316 91.1774C33.7506 89.9668 33.9304 88.5666 33.4075 87.1603C33.2641 86.6008 33.003 86.2396 32.7483 85.8874C32.6777 85.7896 32.6075 85.6926 32.5405 85.5922ZM35.5886 109.702L35.7258 109.655L35.726 109.654C47.1355 105.713 53.1552 93.2566 49.2848 81.8075C47.4248 76.228 43.3667 71.6629 38.1264 69.1272C35.4206 67.7746 32.7134 67.0975 29.8408 66.9289L29.4706 66.9072L29.5893 67.2585L33.4308 78.6246L33.4638 78.7222L33.556 78.7682C36.1751 80.0765 38.3006 82.3677 39.2809 85.3086L39.2824 85.3127C40.2622 88.0894 40.1008 91.1961 38.7919 93.9788C37.4834 96.5967 35.1927 98.7212 32.2528 99.7012L32.2527 99.701L32.2441 99.7043C30.9392 100.193 29.8003 100.356 28.4879 100.356C23.7431 100.356 19.3286 97.4114 17.6928 92.6694L17.6898 92.6608L17.6862 92.6524C17.1999 91.518 17.0384 90.5495 17.0384 89.4084V89.3048L16.9652 89.2316C16.4822 88.7487 16.1739 88.2795 16.023 87.8255L16.0219 87.8225L11.6766 75.2871L11.534 74.8755L11.2506 75.2063C10.232 76.3953 9.38396 77.7522 8.70699 79.2754C6.1743 84.5104 5.66532 90.4272 7.69523 96.0096C11.5847 107.505 24.0956 113.589 35.5886 109.702ZM46.1952 67.021L46.3055 67.1313L46.3211 67.126C48.1112 68.6032 49.8851 70.3913 51.1784 72.3296L51.2855 72.4901L51.4679 72.4272L65.5045 67.5817C65.5051 67.5815 65.5056 67.5813 65.5062 67.5811C65.9688 67.4279 66.2695 67.4277 66.5963 67.4277C67.3718 67.4277 68.2965 67.7397 68.9076 68.5043L68.9098 68.507L87.4623 91.0714L87.6226 91.2664L87.816 91.1042L92.997 86.7589L93.1878 86.5989L93.0286 86.4075L69.9631 58.6621L69.8529 58.5295L69.6898 58.5854L46.2909 66.6078L46.3673 66.8307L46.1951 67.021L46.1952 67.021ZM55.0126 79.789L54.9954 79.795C57.8112 87.9117 56.6518 96.5267 52.509 103.487L52.1605 104.072L52.8049 103.851L81.5528 93.9901L81.8983 93.8717L81.6628 93.5925L65.4515 74.3709L65.3411 74.24L65.1791 74.2956L54.4822 77.9727L54.176 78.078L54.3553 78.3476C54.6679 78.8176 54.827 79.2887 54.9943 79.792L55.0126 79.789ZM53.1447 110.23L53.2259 110.717H143.147H143.314H143.564V110.467V79.546V79.1958L143.233 79.3095L53.1447 110.23Z" fill="black" stroke="black" stroke-width="0.5"/>
</svg>
