<svg width="123" height="80" viewBox="0 0 123 80" fill="none" xmlns="http://www.w3.org/2000/svg">
<path d="M111.351 45.2H4.64915C2.08239 45.2 0 43.5896 0 41.6008C0 39.6121 2.08239 38.0017 4.64915 38.0017L111.351 38C113.918 38 116 39.6104 116 41.5992C116.002 43.5896 113.918 45.2 111.351 45.2V45.2Z" fill="white"/>
<path d="M83.5378 80C82.32 80 81.1066 79.5268 80.1927 78.5869C78.3932 76.7374 78.4366 73.7853 80.2839 71.9857L111.269 41.8412L80.0949 7.81957C78.3497 5.91802 78.48 2.96586 80.3815 1.22507C82.2787 -0.51149 85.2417 -0.389903 86.976 1.51378L121.21 38.8757C122.918 40.736 122.831 43.6143 121.023 45.3724L86.7909 78.6777C85.8858 79.5612 84.7092 79.9997 83.537 79.9997L83.5378 80Z" fill="white"/>
</svg>
