<svg width="65" height="65" viewBox="0 0 65 65" fill="none" xmlns="http://www.w3.org/2000/svg">
<path fill-rule="evenodd" clip-rule="evenodd" d="M18.0114 0V3.07284H16.2544V1.31727L0.00012207 17.5578H16.2544V15.3612H18.0114V17.5578H45.5621L62.3356 0.000470027L18.0114 0ZM18.0114 13.6058H16.2544V10.0947H18.0114V13.6058ZM18.0114 8.33831H16.2544V4.82716H18.0114V8.33831Z" fill="#29245A"/>
<path fill-rule="evenodd" clip-rule="evenodd" d="M0 64.9604H0.543607L0 64.416V64.9604Z" fill="#29245A"/>
<path fill-rule="evenodd" clip-rule="evenodd" d="M0 63.2827L1.91646 61.3678L3.15875 62.6091L0.803456 64.9624H44.8092V48.2829H43.4897V46.5274H44.8092V20.1914H0.000155611L0 63.2827ZM38.2179 46.528H41.732V48.2836H38.2179V46.528ZM32.9465 46.528H36.4607V48.2836H32.9465V46.528ZM27.6758 46.528H31.1895V48.2836L27.6758 48.2842V46.528ZM22.4045 46.528H25.9181V48.2836H22.4045V46.528ZM16.2544 20.6294H18.0115V24.1405H16.2544V20.6294ZM16.2544 25.8963H18.0115V29.4074H16.2544V25.8963ZM16.2544 31.1632H18.0115V34.6743H16.2544V31.1632ZM16.2544 36.4294H18.0115V39.9406H16.2544V36.4294ZM16.2544 41.6969H18.0115V45.2081H16.2544V41.6969ZM16.2544 47.0422V46.9626H16.3341L16.5118 46.785L16.6895 46.9626H17.1332V46.5278H20.6474V48.2834H17.4966L15.582 50.1963L14.3397 48.9551L16.2544 47.0422ZM13.0975 50.1964L14.3398 51.4376L11.8552 53.9201L10.613 52.6789L13.0975 50.1964ZM9.37067 53.9201L10.613 55.1613L8.12838 57.6438L6.88609 56.4026L9.37067 53.9201ZM5.6438 57.6451L6.88609 58.8863L4.40151 61.3688L3.15922 60.1275L5.6438 57.6451Z" fill="#29245A"/>
<path fill-rule="evenodd" clip-rule="evenodd" d="M47.4449 19.4026V64.9998L64.5777 47.8814L64.5753 46.5263H64.579V47.8808L65 47.4601L64.9994 1.02734L47.4449 19.4026ZM52.2736 48.2828H48.76V46.5272H52.2736V48.2828ZM57.5456 48.2828H54.0315V46.5272H57.5456V48.2828ZM62.8169 48.2828H59.3028V46.5272H62.8169V48.2828Z" fill="#29245A"/>
</svg>
